REM DIRINDEX 1\2,1\3
REM DIRNAME cjc116,folder01,folder02
TITLE ""
FILE "Disc2Track08.mp3" MP3
  TRACK 01 AUDIO
    TITLE "0:"
    INDEX 01 00:00:00
  TRACK 02 AUDIO
    TITLE "3:cjc116_2536"
    INDEX 01 00:00:09
  TRACK 03 AUDIO
    TITLE "0:"
    INDEX 01 00:02:08
  TRACK 04 AUDIO
    TITLE "3:cjc116_2537"
    INDEX 01 00:02:67
  TRACK 05 AUDIO
    TITLE "0:"
    INDEX 01 00:04:23
  TRACK 06 AUDIO
    TITLE "2:cjc116_2538"
    INDEX 01 00:05:05
  TRACK 07 AUDIO
    TITLE "0:"
    INDEX 01 00:06:08
  TRACK 08 AUDIO
    TITLE "2:cjc116_2539"
    INDEX 01 00:06:55
  TRACK 09 AUDIO
    TITLE "0:"
    INDEX 01 00:07:74
  TRACK 10 AUDIO
    TITLE "2:cjc116_2540"
    INDEX 01 00:08:38
  TRACK 11 AUDIO
    TITLE "0:"
    INDEX 01 00:09:59
  TRACK 12 AUDIO
    TITLE "2:cjc116_2541"
    INDEX 01 00:10:27
  TRACK 13 AUDIO
    TITLE "0:"
    INDEX 01 00:12:30
  TRACK 14 AUDIO
    TITLE "2:cjc116_2542"
    INDEX 01 00:12:69
  TRACK 15 AUDIO
    TITLE "0:"
    INDEX 01 00:14:11
  TRACK 16 AUDIO
    TITLE "2:cjc116_2543"
    INDEX 01 00:14:51
  TRACK 17 AUDIO
    TITLE "0:"
    INDEX 01 00:16:20
  TRACK 18 AUDIO
    TITLE "2:cjc116_2544"
    INDEX 01 00:16:55
  TRACK 19 AUDIO
    TITLE "0:"
    INDEX 01 00:17:74
  TRACK 20 AUDIO
    TITLE "2:cjc116_2545"
    INDEX 01 00:18:46
  TRACK 21 AUDIO
    TITLE "0:"
    INDEX 01 00:19:63
  TRACK 22 AUDIO
    TITLE "2:cjc116_2546"
    INDEX 01 00:20:26
  TRACK 23 AUDIO
    TITLE "0:"
    INDEX 01 00:22:05
  TRACK 24 AUDIO
    TITLE "2:cjc116_2547"
    INDEX 01 00:22:52
  TRACK 25 AUDIO
    TITLE "0:"
    INDEX 01 00:24:29
  TRACK 26 AUDIO
    TITLE "2:cjc116_2548"
    INDEX 01 00:24:72
  TRACK 27 AUDIO
    TITLE "0:"
    INDEX 01 00:26:42
  TRACK 28 AUDIO
    TITLE "2:cjc116_2549"
    INDEX 01 00:27:02
  TRACK 29 AUDIO
    TITLE "0:"
    INDEX 01 00:29:23
  TRACK 30 AUDIO
    TITLE "2:cjc116_2550"
    INDEX 01 00:29:60
  TRACK 31 AUDIO
    TITLE "0:"
    INDEX 01 00:31:12
  TRACK 32 AUDIO
    TITLE "2:cjc116_2551"
    INDEX 01 00:31:57
  TRACK 33 AUDIO
    TITLE "0:"
    INDEX 01 00:32:62
  TRACK 34 AUDIO
    TITLE "2:cjc116_2552"
    INDEX 01 00:33:26
  TRACK 35 AUDIO
    TITLE "0:"
    INDEX 01 00:35:02
  TRACK 36 AUDIO
    TITLE "2:cjc116_2553"
    INDEX 01 00:35:45
  TRACK 37 AUDIO
    TITLE "0:"
    INDEX 01 00:37:20
  TRACK 38 AUDIO
    TITLE "2:cjc116_2554"
    INDEX 01 00:37:57
  TRACK 39 AUDIO
    TITLE "0:"
    INDEX 01 00:39:51
  TRACK 40 AUDIO
    TITLE "2:cjc116_2555"
    INDEX 01 00:40:21
  TRACK 41 AUDIO
    TITLE "0:"
    INDEX 01 00:42:41
  TRACK 42 AUDIO
    TITLE "2:cjc116_2556"
    INDEX 01 00:42:74
  TRACK 43 AUDIO
    TITLE "0:"
    INDEX 01 00:45:14
  TRACK 44 AUDIO
    TITLE "2:cjc116_2557"
    INDEX 01 00:45:61
  TRACK 45 AUDIO
    TITLE "0:"
    INDEX 01 00:48:06
  TRACK 46 AUDIO
    TITLE "2:cjc116_2558"
    INDEX 01 00:48:44
  TRACK 47 AUDIO
    TITLE "0:"
    INDEX 01 00:50:56
  TRACK 48 AUDIO
    TITLE "2:cjc116_2559"
    INDEX 01 00:51:26
  TRACK 49 AUDIO
    TITLE "0:"
    INDEX 01 00:54:11
  TRACK 50 AUDIO
    TITLE "2:cjc116_2560"
    INDEX 01 00:54:50
  TRACK 51 AUDIO
    TITLE "0:"
    INDEX 01 00:56:47
  TRACK 52 AUDIO
    TITLE "2:cjc116_2561"
    INDEX 01 00:57:15
  TRACK 53 AUDIO
    TITLE "0:"
    INDEX 01 00:59:39
  TRACK 54 AUDIO
    TITLE "2:cjc116_2562"
    INDEX 01 01:00:02
  TRACK 55 AUDIO
    TITLE "0:"
    INDEX 01 01:01:27
  TRACK 56 AUDIO
    TITLE "2:cjc116_2563"
    INDEX 01 01:01:70
  TRACK 57 AUDIO
    TITLE "0:"
    INDEX 01 01:03:27
  TRACK 58 AUDIO
    TITLE "2:cjc116_2564"
    INDEX 01 01:03:59
  TRACK 59 AUDIO
    TITLE "0:"
    INDEX 01 01:05:48
  TRACK 60 AUDIO
    TITLE "2:cjc116_2565"
    INDEX 01 01:06:10
  TRACK 61 AUDIO
    TITLE "0:"
    INDEX 01 01:08:11
  TRACK 62 AUDIO
    TITLE "2:cjc116_2566"
    INDEX 01 01:08:48
  TRACK 63 AUDIO
    TITLE "0:"
    INDEX 01 01:10:35
  TRACK 64 AUDIO
    TITLE "2:cjc116_2567"
    INDEX 01 01:11:00
  TRACK 65 AUDIO
    TITLE "0:"
    INDEX 01 01:12:66
  TRACK 66 AUDIO
    TITLE "2:cjc116_2568"
    INDEX 01 01:13:28
  TRACK 67 AUDIO
    TITLE "0:"
    INDEX 01 01:14:74
  TRACK 68 AUDIO
    TITLE "2:cjc116_2569"
    INDEX 01 01:15:40
  TRACK 69 AUDIO
    TITLE "0:"
    INDEX 01 01:16:71
  TRACK 70 AUDIO
    TITLE "2:cjc116_2570"
    INDEX 01 01:17:39
  TRACK 71 AUDIO
    TITLE "0:"
    INDEX 01 01:18:68
  TRACK 72 AUDIO
    TITLE "2:cjc116_2571"
    INDEX 01 01:19:38
  TRACK 73 AUDIO
    TITLE "0:"
    INDEX 01 01:20:71
  TRACK 74 AUDIO
    TITLE "2:cjc116_2572"
    INDEX 01 01:21:41
  TRACK 75 AUDIO
    TITLE "0:"
    INDEX 01 01:22:68
  TRACK 76 AUDIO
    TITLE "2:cjc116_2573"
    INDEX 01 01:23:32
  TRACK 77 AUDIO
    TITLE "0:"
    INDEX 01 01:25:08
  TRACK 78 AUDIO
    TITLE "2:cjc116_2574"
    INDEX 01 01:25:43
  TRACK 79 AUDIO
    TITLE "0:"
    INDEX 01 01:27:14
  TRACK 80 AUDIO
    TITLE "2:cjc116_2575"
    INDEX 01 01:27:55
  TRACK 81 AUDIO
    TITLE "0:"
    INDEX 01 01:28:74
  TRACK 82 AUDIO
    TITLE "2:cjc116_2576"
    INDEX 01 01:29:37
  TRACK 83 AUDIO
    TITLE "0:"
    INDEX 01 01:31:39
  TRACK 84 AUDIO
    TITLE "2:cjc116_2577"
    INDEX 01 01:32:02
  TRACK 85 AUDIO
    TITLE "0:"
    INDEX 01 01:33:50
  TRACK 86 AUDIO
    TITLE "2:cjc116_2578"
    INDEX 01 01:34:16
  TRACK 87 AUDIO
    TITLE "0:"
    INDEX 01 01:35:39
  TRACK 88 AUDIO
    TITLE "2:cjc116_2579"
    INDEX 01 01:36:09
  TRACK 89 AUDIO
    TITLE "0:"
    INDEX 01 01:37:71
  TRACK 90 AUDIO
    TITLE "2:cjc116_2580"
    INDEX 01 01:38:38
  TRACK 91 AUDIO
    TITLE "0:"
    INDEX 01 01:40:17
  TRACK 92 AUDIO
    TITLE "2:cjc116_2581"
    INDEX 01 01:40:56
  TRACK 93 AUDIO
    TITLE "0:"
    INDEX 01 01:42:08
  TRACK 94 AUDIO
    TITLE "2:cjc116_2582"
    INDEX 01 01:42:45
  TRACK 95 AUDIO
    TITLE "0:"
    INDEX 01 01:43:68
  TRACK 96 AUDIO
    TITLE "2:cjc116_2583"
    INDEX 01 01:44:36
  TRACK 97 AUDIO
    TITLE "0:"
    INDEX 01 01:46:02
  TRACK 98 AUDIO
    TITLE "2:cjc116_2584"
    INDEX 01 01:46:43
  TRACK 99 AUDIO
    TITLE "0:"
    INDEX 01 01:47:62
  TRACK 100 AUDIO
    TITLE "2:cjc116_2585"
    INDEX 01 01:48:32
  TRACK 101 AUDIO
    TITLE "0:"
    INDEX 01 01:49:47
  TRACK 102 AUDIO
    TITLE "2:cjc116_2586"
    INDEX 01 01:50:07
  TRACK 103 AUDIO
    TITLE "0:"
    INDEX 01 01:51:72
  TRACK 104 AUDIO
    TITLE "2:cjc116_2587"
    INDEX 01 01:52:36
  TRACK 105 AUDIO
    TITLE "0:"
    INDEX 01 01:53:53
  TRACK 106 AUDIO
    TITLE "2:cjc116_2588"
    INDEX 01 01:54:17
  TRACK 107 AUDIO
    TITLE "0:"
    INDEX 01 01:55:65
  TRACK 108 AUDIO
    TITLE "2:cjc116_2589"
    INDEX 01 01:56:34
  TRACK 109 AUDIO
    TITLE "0:"
    INDEX 01 01:57:62
  TRACK 110 AUDIO
    TITLE "2:cjc116_2590"
    INDEX 01 01:58:32
  TRACK 111 AUDIO
    TITLE "0:"
    INDEX 01 01:59:69
  TRACK 112 AUDIO
    TITLE "2:cjc116_2591"
    INDEX 01 02:00:33
  TRACK 113 AUDIO
    TITLE "0:"
    INDEX 01 02:01:62
  TRACK 114 AUDIO
    TITLE "2:cjc116_2592"
    INDEX 01 02:02:24
  TRACK 115 AUDIO
    TITLE "0:"
    INDEX 01 02:04:02
  TRACK 116 AUDIO
    TITLE "2:cjc116_2593"
    INDEX 01 02:04:43
  TRACK 117 AUDIO
    TITLE "0:"
    INDEX 01 02:05:74
  TRACK 118 AUDIO
    TITLE "2:cjc116_2594"
    INDEX 01 02:06:38
  TRACK 119 AUDIO
    TITLE "0:"
    INDEX 01 02:08:15
  TRACK 120 AUDIO
    TITLE "2:cjc116_2595"
    INDEX 01 02:08:52
  TRACK 121 AUDIO
    TITLE "0:"
    INDEX 01 02:10:02
  TRACK 122 AUDIO
    TITLE "2:cjc116_2596"
    INDEX 01 02:10:45
  TRACK 123 AUDIO
    TITLE "0:"
    INDEX 01 02:12:11
  TRACK 124 AUDIO
    TITLE "2:cjc116_2597"
    INDEX 01 02:12:56
  TRACK 125 AUDIO
    TITLE "0:"
    INDEX 01 02:14:12
  TRACK 126 AUDIO
    TITLE "2:cjc116_2598"
    INDEX 01 02:14:51
  TRACK 127 AUDIO
    TITLE "0:"
    INDEX 01 02:16:30
  TRACK 128 AUDIO
    TITLE "2:cjc116_2599"
    INDEX 01 02:16:68
  TRACK 129 AUDIO
    TITLE "0:"
    INDEX 01 02:18:39
  TRACK 130 AUDIO
    TITLE "2:cjc116_2600"
    INDEX 01 02:19:03
  TRACK 131 AUDIO
    TITLE "0:"
    INDEX 01 02:20:20
  TRACK 132 AUDIO
    TITLE "2:cjc116_2601"
    INDEX 01 02:20:65
  TRACK 133 AUDIO
    TITLE "0:"
    INDEX 01 02:22:29
  TRACK 134 AUDIO
    TITLE "2:cjc116_2602"
    INDEX 01 02:22:64
  TRACK 135 AUDIO
    TITLE "0:"
    INDEX 01 02:24:30
  TRACK 136 AUDIO
    TITLE "2:cjc116_2603"
    INDEX 01 02:24:67
  TRACK 137 AUDIO
    TITLE "0:"
    INDEX 01 02:26:09
  TRACK 138 AUDIO
    TITLE "2:cjc116_2604"
    INDEX 01 02:26:46
  TRACK 139 AUDIO
    TITLE "0:"
    INDEX 01 02:28:65
  TRACK 140 AUDIO
    TITLE "2:cjc116_2605"
    INDEX 01 02:29:31
  TRACK 141 AUDIO
    TITLE "0:"
    INDEX 01 02:31:42
  TRACK 142 AUDIO
    TITLE "2:cjc116_2606"
    INDEX 01 02:32:10
  TRACK 143 AUDIO
    TITLE "0:"
    INDEX 01 02:34:05
  TRACK 144 AUDIO
    TITLE "2:cjc116_2607"
    INDEX 01 02:34:52
  TRACK 145 AUDIO
    TITLE "0:"
    INDEX 01 02:36:08
  TRACK 146 AUDIO
    TITLE "2:cjc116_2608"
    INDEX 01 02:36:47
  TRACK 147 AUDIO
    TITLE "0:"
    INDEX 01 02:39:00
  TRACK 148 AUDIO
    TITLE "2:cjc116_2609"
    INDEX 01 02:39:43
  TRACK 149 AUDIO
    TITLE "0:"
    INDEX 01 02:41:15
  TRACK 150 AUDIO
    TITLE "2:cjc116_2610"
    INDEX 01 02:41:56
  TRACK 151 AUDIO
    TITLE "0:"
    INDEX 01 02:43:61
  TRACK 152 AUDIO
    TITLE "2:cjc116_2611"
    INDEX 01 02:44:29
  TRACK 153 AUDIO
    TITLE "0:"
    INDEX 01 02:46:06
  TRACK 154 AUDIO
    TITLE "2:cjc116_2612"
    INDEX 01 02:46:45
  TRACK 155 AUDIO
    TITLE "0:"
    INDEX 01 02:48:36
  TRACK 156 AUDIO
    TITLE "2:cjc116_2613"
    INDEX 01 02:49:08
  TRACK 157 AUDIO
    TITLE "0:"
    INDEX 01 02:50:47
  TRACK 158 AUDIO
    TITLE "2:cjc116_2614"
    INDEX 01 02:51:11
  TRACK 159 AUDIO
    TITLE "0:"
    INDEX 01 02:53:08
  TRACK 160 AUDIO
    TITLE "2:cjc116_2615"
    INDEX 01 02:53:53
  TRACK 161 AUDIO
    TITLE "0:"
    INDEX 01 02:55:38
  TRACK 162 AUDIO
    TITLE "2:cjc116_2616"
    INDEX 01 02:56:04
  TRACK 163 AUDIO
    TITLE "0:"
    INDEX 01 02:58:23
  TRACK 164 AUDIO
    TITLE "2:cjc116_2617"
    INDEX 01 02:58:68
  TRACK 165 AUDIO
    TITLE "0:"
    INDEX 01 03:00:34
  TRACK 166 AUDIO
    TITLE "2:cjc116_2618"
    INDEX 01 03:01:00
  TRACK 167 AUDIO
    TITLE "0:"
    INDEX 01 03:02:54
  TRACK 168 AUDIO
    TITLE "2:cjc116_2619"
    INDEX 01 03:03:18
  TRACK 169 AUDIO
    TITLE "0:"
    INDEX 01 03:05:09
  TRACK 170 AUDIO
    TITLE "2:cjc116_2620"
    INDEX 01 03:05:50
  TRACK 171 AUDIO
    TITLE "0:"
    INDEX 01 03:07:47
  TRACK 172 AUDIO
    TITLE "2:cjc116_2621"
    INDEX 01 03:08:13
  TRACK 173 AUDIO
    TITLE "0:"
    INDEX 01 03:10:20
  TRACK 174 AUDIO
    TITLE "2:cjc116_2622"
    INDEX 01 03:10:57
  TRACK 175 AUDIO
    TITLE "0:"
    INDEX 01 03:12:68
  TRACK 176 AUDIO
    TITLE "2:cjc116_2623"
    INDEX 01 03:13:46
  TRACK 177 AUDIO
    TITLE "0:"
    INDEX 01 03:15:27
  TRACK 178 AUDIO
    TITLE "2:cjc116_2624"
    INDEX 01 03:15:68
  TRACK 179 AUDIO
    TITLE "0:"
    INDEX 01 03:17:24
  TRACK 180 AUDIO
    TITLE "2:cjc116_2625"
    INDEX 01 03:17:73
  TRACK 181 AUDIO
    TITLE "0:"
    INDEX 01 03:19:60
  TRACK 182 AUDIO
    TITLE "2:cjc116_2626"
    INDEX 01 03:20:24
  TRACK 183 AUDIO
    TITLE "0:"
    INDEX 01 03:22:08
  TRACK 184 AUDIO
    TITLE "2:cjc116_2627"
    INDEX 01 03:22:53
  TRACK 185 AUDIO
    TITLE "0:"
    INDEX 01 03:24:65
  TRACK 186 AUDIO
    TITLE "2:cjc116_2628"
    INDEX 01 03:25:30
  TRACK 187 AUDIO
    TITLE "0:"
    INDEX 01 03:26:68
  TRACK 188 AUDIO
    TITLE "2:cjc116_2629"
    INDEX 01 03:27:30
  TRACK 189 AUDIO
    TITLE "0:"
    INDEX 01 03:28:63
  TRACK 190 AUDIO
    TITLE "2:cjc116_2630"
    INDEX 01 03:29:25
  TRACK 191 AUDIO
    TITLE "0:"
    INDEX 01 03:31:09
  TRACK 192 AUDIO
    TITLE "2:cjc116_2631"
    INDEX 01 03:31:54
  TRACK 193 AUDIO
    TITLE "0:"
    INDEX 01 03:32:71
  TRACK 194 AUDIO
    TITLE "2:cjc116_2632"
    INDEX 01 03:33:41
  TRACK 195 AUDIO
    TITLE "0:"
    INDEX 01 03:35:59
  TRACK 196 AUDIO
    TITLE "2:cjc116_2633"
    INDEX 01 03:36:16
  TRACK 197 AUDIO
    TITLE "0:"
    INDEX 01 03:38:38
  TRACK 198 AUDIO
    TITLE "3:cjc116_2634"
    INDEX 01 03:40:13
  TRACK 199 AUDIO
    TITLE "0:"
    INDEX 01 03:43:08
  TRACK 200 AUDIO
    TITLE "2:cjc116_2635"
    INDEX 01 03:43:59
  TRACK 201 AUDIO
    TITLE "0:"
    INDEX 01 03:45:11
  TRACK 202 AUDIO
    TITLE "2:cjc116_2636"
    INDEX 01 03:45:60
  TRACK 203 AUDIO
    TITLE "0:"
    INDEX 01 03:47:23
  TRACK 204 AUDIO
    TITLE "2:cjc116_2637"
    INDEX 01 03:47:53
  TRACK 205 AUDIO
    TITLE "0:"
    INDEX 01 03:49:24
  TRACK 206 AUDIO
    TITLE "2:cjc116_2638"
    INDEX 01 03:49:67
  TRACK 207 AUDIO
    TITLE "0:"
    INDEX 01 03:51:54
  TRACK 208 AUDIO
    TITLE "2:cjc116_2639"
    INDEX 01 03:52:15
  TRACK 209 AUDIO
    TITLE "0:"
    INDEX 01 03:53:45
  TRACK 210 AUDIO
    TITLE "2:cjc116_2640"
    INDEX 01 03:54:16
  TRACK 211 AUDIO
    TITLE "0:"
    INDEX 01 03:55:35
  TRACK 212 AUDIO
    TITLE "2:cjc116_2641"
    INDEX 01 03:55:70
  TRACK 213 AUDIO
    TITLE "0:"
    INDEX 01 03:57:45
  TRACK 214 AUDIO
    TITLE "2:cjc116_2642"
    INDEX 01 03:58:13
  TRACK 215 AUDIO
    TITLE "0:"
    INDEX 01 03:59:62
  TRACK 216 AUDIO
    TITLE "2:cjc116_2643"
    INDEX 01 04:00:24
  TRACK 217 AUDIO
    TITLE "0:"
    INDEX 01 04:01:21
  TRACK 218 AUDIO
    TITLE "2:cjc116_2644"
    INDEX 01 04:01:59
  TRACK 219 AUDIO
    TITLE "0:"
    INDEX 01 04:02:74
  TRACK 220 AUDIO
    TITLE "2:cjc116_2645"
    INDEX 01 04:03:34
  TRACK 221 AUDIO
    TITLE "0:"
    INDEX 01 04:05:00
  TRACK 222 AUDIO
    TITLE "2:cjc116_2646"
    INDEX 01 04:05:41
  TRACK 223 AUDIO
    TITLE "0:"
    INDEX 01 04:07:14
  TRACK 224 AUDIO
    TITLE "2:cjc116_2647"
    INDEX 01 04:07:53
  TRACK 225 AUDIO
    TITLE "0:"
    INDEX 01 04:09:15
  TRACK 226 AUDIO
    TITLE "2:cjc116_2648"
    INDEX 01 04:09:58
  TRACK 227 AUDIO
    TITLE "0:"
    INDEX 01 04:10:71
  TRACK 228 AUDIO
    TITLE "2:cjc116_2649"
    INDEX 01 04:11:38
  TRACK 229 AUDIO
    TITLE "0:"
    INDEX 01 04:13:50
  TRACK 230 AUDIO
    TITLE "2:cjc116_2650"
    INDEX 01 04:14:20
  TRACK 231 AUDIO
    TITLE "0:"
    INDEX 01 04:15:65
  TRACK 232 AUDIO
    TITLE "2:cjc116_2651"
    INDEX 01 04:16:25
  TRACK 233 AUDIO
    TITLE "0:"
    INDEX 01 04:17:66
  TRACK 234 AUDIO
    TITLE "2:cjc116_2652"
    INDEX 01 04:18:30
  TRACK 235 AUDIO
    TITLE "0:"
    INDEX 01 04:19:57
  TRACK 236 AUDIO
    TITLE "2:cjc116_2653"
    INDEX 01 04:20:17
  TRACK 237 AUDIO
    TITLE "0:"
    INDEX 01 04:22:14
  TRACK 238 AUDIO
    TITLE "2:cjc116_2654"
    INDEX 01 04:22:61
  TRACK 239 AUDIO
    TITLE "0:"
    INDEX 01 04:24:56
  TRACK 240 AUDIO
    TITLE "2:cjc116_2655"
    INDEX 01 04:25:22
  TRACK 241 AUDIO
    TITLE "0:"
    INDEX 01 04:26:18
  TRACK 242 AUDIO
    TITLE "2:cjc116_2656"
    INDEX 01 04:26:57
  TRACK 243 AUDIO
    TITLE "0:"
    INDEX 01 04:27:68
  TRACK 244 AUDIO
    TITLE "2:cjc116_2657"
    INDEX 01 04:28:30
  TRACK 245 AUDIO
    TITLE "0:"
    INDEX 01 04:30:09
  TRACK 246 AUDIO
    TITLE "2:cjc116_2658"
    INDEX 01 04:30:51
  TRACK 247 AUDIO
    TITLE "0:"
    INDEX 01 04:32:08
  TRACK 248 AUDIO
    TITLE "2:cjc116_2659"
    INDEX 01 04:32:48
  TRACK 249 AUDIO
    TITLE "0:"
    INDEX 01 04:34:23
  TRACK 250 AUDIO
    TITLE "2:cjc116_2660"
    INDEX 01 04:34:64
  TRACK 251 AUDIO
    TITLE "0:"
    INDEX 01 04:36:26
  TRACK 252 AUDIO
    TITLE "2:cjc116_2661"
    INDEX 01 04:36:63
  TRACK 253 AUDIO
    TITLE "0:"
    INDEX 01 04:37:74
  TRACK 254 AUDIO
    TITLE "2:cjc116_2662"
    INDEX 01 04:38:44
  TRACK 255 AUDIO
    TITLE "0:"
    INDEX 01 04:40:27
  TRACK 256 AUDIO
    TITLE "2:cjc116_2663"
    INDEX 01 04:40:65
  TRACK 257 AUDIO
    TITLE "0:"
    INDEX 01 04:41:74
  TRACK 258 AUDIO
    TITLE "2:cjc116_2664"
    INDEX 01 04:42:46
  TRACK 259 AUDIO
    TITLE "0:"
    INDEX 01 04:43:47
  TRACK 260 AUDIO
    TITLE "2:cjc116_2665"
    INDEX 01 04:44:13
  TRACK 261 AUDIO
    TITLE "0:"
    INDEX 01 04:45:34
  TRACK 262 AUDIO
    TITLE "2:cjc116_2666"
    INDEX 01 04:45:72
  TRACK 263 AUDIO
    TITLE "0:"
    INDEX 01 04:47:06
  TRACK 264 AUDIO
    TITLE "2:cjc116_2667"
    INDEX 01 04:47:45
  TRACK 265 AUDIO
    TITLE "0:"
    INDEX 01 04:49:05
  TRACK 266 AUDIO
    TITLE "2:cjc116_2668"
    INDEX 01 04:49:46
  TRACK 267 AUDIO
    TITLE "0:"
    INDEX 01 04:51:23
  TRACK 268 AUDIO
    TITLE "2:cjc116_2669"
    INDEX 01 04:51:62
  TRACK 269 AUDIO
    TITLE "0:"
    INDEX 01 04:53:42
  TRACK 270 AUDIO
    TITLE "2:cjc116_2670"
    INDEX 01 04:54:06
  TRACK 271 AUDIO
    TITLE "0:"
    INDEX 01 04:55:17
  TRACK 272 AUDIO
    TITLE "2:cjc116_2671"
    INDEX 01 04:55:54
  TRACK 273 AUDIO
    TITLE "0:"
    INDEX 01 04:57:24
  TRACK 274 AUDIO
    TITLE "2:cjc116_2672"
    INDEX 01 04:57:63
  TRACK 275 AUDIO
    TITLE "0:"
    INDEX 01 04:59:11
  TRACK 276 AUDIO
    TITLE "2:cjc116_2673"
    INDEX 01 04:59:52
  TRACK 277 AUDIO
    TITLE "0:"
    INDEX 01 05:01:59
  TRACK 278 AUDIO
    TITLE "2:cjc116_2674"
    INDEX 01 05:02:23
  TRACK 279 AUDIO
    TITLE "0:"
    INDEX 01 05:03:44
  TRACK 280 AUDIO
    TITLE "2:cjc116_2675"
    INDEX 01 05:04:08
  TRACK 281 AUDIO
    TITLE "0:"
    INDEX 01 05:06:05
  TRACK 282 AUDIO
    TITLE "2:cjc116_2676"
    INDEX 01 05:06:48
  TRACK 283 AUDIO
    TITLE "0:"
    INDEX 01 05:08:08
  TRACK 284 AUDIO
    TITLE "2:cjc116_2677"
    INDEX 01 05:08:47
  TRACK 285 AUDIO
    TITLE "0:"
    INDEX 01 05:10:23
  TRACK 286 AUDIO
    TITLE "2:cjc116_2678"
    INDEX 01 05:10:60
  TRACK 287 AUDIO
    TITLE "0:"
    INDEX 01 05:12:14
  TRACK 288 AUDIO
    TITLE "2:cjc116_2679"
    INDEX 01 05:12:51
  TRACK 289 AUDIO
    TITLE "0:"
    INDEX 01 05:14:15
  TRACK 290 AUDIO
    TITLE "2:cjc116_2680"
    INDEX 01 05:14:58
  TRACK 291 AUDIO
    TITLE "0:"
    INDEX 01 05:15:65
  TRACK 292 AUDIO
    TITLE "2:cjc116_2681"
    INDEX 01 05:16:27
  TRACK 293 AUDIO
    TITLE "0:"
    INDEX 01 05:17:44
  TRACK 294 AUDIO
    TITLE "2:cjc116_2682"
    INDEX 01 05:18:08
  TRACK 295 AUDIO
    TITLE "0:"
    INDEX 01 05:19:12
  TRACK 296 AUDIO
    TITLE "2:cjc116_2683"
    INDEX 01 05:19:51
  TRACK 297 AUDIO
    TITLE "0:"
    INDEX 01 05:20:66
  TRACK 298 AUDIO
    TITLE "2:cjc116_2684"
    INDEX 01 05:21:46
  TRACK 299 AUDIO
    TITLE "0:"
    INDEX 01 05:22:63
  TRACK 300 AUDIO
    TITLE "2:cjc116_2685"
    INDEX 01 05:23:27
  TRACK 301 AUDIO
    TITLE "0:"
    INDEX 01 05:25:20
  TRACK 302 AUDIO
    TITLE "2:cjc116_2686"
    INDEX 01 05:25:59
  TRACK 303 AUDIO
    TITLE "0:"
    INDEX 01 05:27:00
  TRACK 304 AUDIO
    TITLE "2:cjc116_2687"
    INDEX 01 05:27:35
  TRACK 305 AUDIO
    TITLE "0:"
    INDEX 01 05:28:38
  TRACK 306 AUDIO
    TITLE "2:cjc116_2688"
    INDEX 01 05:29:02
  TRACK 307 AUDIO
    TITLE "0:"
    INDEX 01 05:31:62
  TRACK 308 AUDIO
    TITLE "2:cjc116_2689"
    INDEX 01 05:32:22
  TRACK 309 AUDIO
    TITLE "0:"
    INDEX 01 05:33:35
  TRACK 310 AUDIO
    TITLE "2:cjc116_2690"
    INDEX 01 05:34:02
  TRACK 311 AUDIO
    TITLE "0:"
    INDEX 01 05:35:05
  TRACK 312 AUDIO
    TITLE "2:cjc116_2691"
    INDEX 01 05:35:48
  TRACK 313 AUDIO
    TITLE "0:"
    INDEX 01 05:36:48
  TRACK 314 AUDIO
    TITLE "2:cjc116_2692"
    INDEX 01 05:37:27
  TRACK 315 AUDIO
    TITLE "0:"
    INDEX 01 05:38:29
  TRACK 316 AUDIO
    TITLE "2:cjc116_2693"
    INDEX 01 05:38:74
  TRACK 317 AUDIO
    TITLE "0:"
    INDEX 01 05:39:63
  TRACK 318 AUDIO
    TITLE "2:cjc116_2694"
    INDEX 01 05:40:36
  TRACK 319 AUDIO
    TITLE "0:"
    INDEX 01 05:41:39
  TRACK 320 AUDIO
    TITLE "2:cjc116_2695"
    INDEX 01 05:42:05
  TRACK 321 AUDIO
    TITLE "0:"
    INDEX 01 05:43:63
  TRACK 322 AUDIO
    TITLE "2:cjc116_2696"
    INDEX 01 05:44:39
  TRACK 323 AUDIO
    TITLE "0:"
    INDEX 01 05:45:68
  TRACK 324 AUDIO
    TITLE "2:cjc116_2697"
    INDEX 01 05:46:36
  TRACK 325 AUDIO
    TITLE "0:"
    INDEX 01 05:48:10
  TRACK 326 AUDIO
    TITLE "2:cjc116_2698"
    INDEX 01 05:48:47
  TRACK 327 AUDIO
    TITLE "0:"
    INDEX 01 05:49:62
  TRACK 328 AUDIO
    TITLE "2:cjc116_2699"
    INDEX 01 05:50:26
  TRACK 329 AUDIO
    TITLE "0:"
    INDEX 01 05:51:47
  TRACK 330 AUDIO
    TITLE "2:cjc116_2700"
    INDEX 01 05:52:15
  TRACK 331 AUDIO
    TITLE "0:"
    INDEX 01 05:53:66
  TRACK 332 AUDIO
    TITLE "2:cjc116_2701"
    INDEX 01 05:54:26
  TRACK 333 AUDIO
    TITLE "0:"
    INDEX 01 05:55:57
  TRACK 334 AUDIO
    TITLE "2:cjc116_2702"
    INDEX 01 05:56:21
  TRACK 335 AUDIO
    TITLE "0:"
    INDEX 01 05:57:32
  TRACK 336 AUDIO
    TITLE "2:cjc116_2703"
    INDEX 01 05:57:69
  TRACK 337 AUDIO
    TITLE "0:"
    INDEX 01 05:58:73
  TRACK 338 AUDIO
    TITLE "2:cjc116_2704"
    INDEX 01 05:59:37
  TRACK 339 AUDIO
    TITLE "0:"
    INDEX 01 06:00:64
  TRACK 340 AUDIO
    TITLE "2:cjc116_2705"
    INDEX 01 06:01:26
  TRACK 341 AUDIO
    TITLE "0:"
    INDEX 01 06:03:29
  TRACK 342 AUDIO
    TITLE "2:cjc116_2706"
    INDEX 01 06:03:66
  TRACK 343 AUDIO
    TITLE "0:"
    INDEX 01 06:05:28
  TRACK 344 AUDIO
    TITLE "2:cjc116_2707"
    INDEX 01 06:05:67
  TRACK 345 AUDIO
    TITLE "0:"
    INDEX 01 06:07:09
  TRACK 346 AUDIO
    TITLE "2:cjc116_2708"
    INDEX 01 06:07:48
  TRACK 347 AUDIO
    TITLE "0:"
    INDEX 01 06:08:59
  TRACK 348 AUDIO
    TITLE "2:cjc116_2709"
    INDEX 01 06:09:27
  TRACK 349 AUDIO
    TITLE "0:"
    INDEX 01 06:10:21
  TRACK 350 AUDIO
    TITLE "2:cjc116_2710"
    INDEX 01 06:10:64
  TRACK 351 AUDIO
    TITLE "0:"
    INDEX 01 06:11:54
  TRACK 352 AUDIO
    TITLE "2:cjc116_2711"
    INDEX 01 06:12:08
  TRACK 353 AUDIO
    TITLE "0:"
    INDEX 01 06:13:35
  TRACK 354 AUDIO
    TITLE "2:cjc116_2712"
    INDEX 01 06:14:01
  TRACK 355 AUDIO
    TITLE "0:"
    INDEX 01 06:15:30
  TRACK 356 AUDIO
    TITLE "2:cjc116_2713"
    INDEX 01 06:15:67
  TRACK 357 AUDIO
    TITLE "0:"
    INDEX 01 06:17:27
  TRACK 358 AUDIO
    TITLE "2:cjc116_2714"
    INDEX 01 06:17:74
  TRACK 359 AUDIO
    TITLE "0:"
    INDEX 01 06:19:12
  TRACK 360 AUDIO
    TITLE "2:cjc116_2715"
    INDEX 01 06:19:43
  TRACK 361 AUDIO
    TITLE "0:"
    INDEX 01 06:20:74
  TRACK 362 AUDIO
    TITLE "2:cjc116_2716"
    INDEX 01 06:21:34
  TRACK 363 AUDIO
    TITLE "0:"
    INDEX 01 06:22:55
  TRACK 364 AUDIO
    TITLE "2:cjc116_2717"
    INDEX 01 06:23:10
  TRACK 365 AUDIO
    TITLE "0:"
    INDEX 01 06:24:62
  TRACK 366 AUDIO
    TITLE "2:cjc116_2718"
    INDEX 01 06:25:22
  TRACK 367 AUDIO
    TITLE "0:"
    INDEX 01 06:26:32
  TRACK 368 AUDIO
    TITLE "2:cjc116_2719"
    INDEX 01 06:26:69
  TRACK 369 AUDIO
    TITLE "0:"
    INDEX 01 06:28:11
  TRACK 370 AUDIO
    TITLE "2:cjc116_2720"
    INDEX 01 06:28:52
  TRACK 371 AUDIO
    TITLE "0:"
    INDEX 01 06:30:06
  TRACK 372 AUDIO
    TITLE "2:cjc116_2721"
    INDEX 01 06:30:49
  TRACK 373 AUDIO
    TITLE "0:"
    INDEX 01 06:31:56
  TRACK 374 AUDIO
    TITLE "2:cjc116_2722"
    INDEX 01 06:32:21
  TRACK 375 AUDIO
    TITLE "0:"
    INDEX 01 06:33:20
  TRACK 376 AUDIO
    TITLE "2:cjc116_2723"
    INDEX 01 06:33:59
  TRACK 377 AUDIO
    TITLE "0:"
    INDEX 01 06:35:17
  TRACK 378 AUDIO
    TITLE "2:cjc116_2724"
    INDEX 01 06:35:56
  TRACK 379 AUDIO
    TITLE "0:"
    INDEX 01 06:36:65
  TRACK 380 AUDIO
    TITLE "2:cjc116_2725"
    INDEX 01 06:37:30
  TRACK 381 AUDIO
    TITLE "0:"
    INDEX 01 06:39:05
  TRACK 382 AUDIO
    TITLE "2:cjc116_2726"
    INDEX 01 06:39:42
  TRACK 383 AUDIO
    TITLE "0:"
    INDEX 01 06:41:27
  TRACK 384 AUDIO
    TITLE "2:cjc116_2727"
    INDEX 01 06:41:69
  TRACK 385 AUDIO
    TITLE "0:"
    INDEX 01 06:43:15
  TRACK 386 AUDIO
    TITLE "2:cjc116_2728"
    INDEX 01 06:43:67
  TRACK 387 AUDIO
    TITLE "0:"
    INDEX 01 06:45:04
  TRACK 388 AUDIO
    TITLE "2:cjc116_2729"
    INDEX 01 06:45:41
  TRACK 389 AUDIO
    TITLE "0:"
    INDEX 01 06:47:24
  TRACK 390 AUDIO
    TITLE "2:cjc116_2730"
    INDEX 01 06:47:63
  TRACK 391 AUDIO
    TITLE "0:"
    INDEX 01 06:49:15
  TRACK 392 AUDIO
    TITLE "2:cjc116_2731"
    INDEX 01 06:49:56
  TRACK 393 AUDIO
    TITLE "0:"
    INDEX 01 06:51:45
  TRACK 394 AUDIO
    TITLE "2:cjc116_2732"
    INDEX 01 06:52:08
  TRACK 395 AUDIO
    TITLE "0:"
    INDEX 01 06:53:36
  TRACK 396 AUDIO
    TITLE "2:cjc116_2733"
    INDEX 01 06:53:72
  TRACK 397 AUDIO
    TITLE "0:"
    INDEX 01 06:55:39
  TRACK 398 AUDIO
    TITLE "2:cjc116_2734"
    INDEX 01 06:56:09
  TRACK 399 AUDIO
    TITLE "0:"
    INDEX 01 06:57:58
  TRACK 400 AUDIO
    TITLE "2:cjc116_2735"
    INDEX 01 06:58:26
  TRACK 401 AUDIO
    TITLE "0:"
    INDEX 01 07:00:17
  TRACK 402 AUDIO
    TITLE "2:cjc116_2736"
    INDEX 01 07:00:60
  TRACK 403 AUDIO
    TITLE "0:"
    INDEX 01 07:03:27
  TRACK 404 AUDIO
    TITLE "2:cjc116_2737"
    INDEX 01 07:03:66
  TRACK 405 AUDIO
    TITLE "0:"
    INDEX 01 07:05:30
  TRACK 406 AUDIO
    TITLE "2:cjc116_2738"
    INDEX 01 07:05:69
  TRACK 407 AUDIO
    TITLE "0:"
    INDEX 01 07:07:48
  TRACK 408 AUDIO
    TITLE "2:cjc116_2739"
    INDEX 01 07:08:11
  TRACK 409 AUDIO
    TITLE "0:"
    INDEX 01 07:09:71
  TRACK 410 AUDIO
    TITLE "2:cjc116_2740"
    INDEX 01 07:10:43
  TRACK 411 AUDIO
    TITLE "0:"
    INDEX 01 07:12:20
  TRACK 412 AUDIO
    TITLE "2:cjc116_2741"
    INDEX 01 07:12:59
  TRACK 413 AUDIO
    TITLE "0:"
    INDEX 01 07:14:60
  TRACK 414 AUDIO
    TITLE "2:cjc116_2742"
    INDEX 01 07:15:30
  TRACK 415 AUDIO
    TITLE "0:"
    INDEX 01 07:17:27
  TRACK 416 AUDIO
    TITLE "2:cjc116_2743"
    INDEX 01 07:17:66
  TRACK 417 AUDIO
    TITLE "0:"
    INDEX 01 07:19:36
  TRACK 418 AUDIO
    TITLE "2:cjc116_2744"
    INDEX 01 07:20:10
  TRACK 419 AUDIO
    TITLE "0:"
    INDEX 01 07:21:66
  TRACK 420 AUDIO
    TITLE "2:cjc116_2745"
    INDEX 01 07:22:30
  TRACK 421 AUDIO
    TITLE "0:"
    INDEX 01 07:24:06
  TRACK 422 AUDIO
    TITLE "2:cjc116_2746"
    INDEX 01 07:24:45
  TRACK 423 AUDIO
    TITLE "0:"
    INDEX 01 07:26:24
  TRACK 424 AUDIO
    TITLE "2:cjc116_2747"
    INDEX 01 07:26:63
  TRACK 425 AUDIO
    TITLE "0:"
    INDEX 01 07:28:33
  TRACK 426 AUDIO
    TITLE "2:cjc116_2748"
    INDEX 01 07:29:01
  TRACK 427 AUDIO
    TITLE "0:"
    INDEX 01 07:30:47
  TRACK 428 AUDIO
    TITLE "2:cjc116_2749"
    INDEX 01 07:31:12
  TRACK 429 AUDIO
    TITLE "0:"
    INDEX 01 07:32:62
  TRACK 430 AUDIO
    TITLE "2:cjc116_2750"
    INDEX 01 07:33:46
  TRACK 431 AUDIO
    TITLE "0:"
    INDEX 01 07:34:51
  TRACK 432 AUDIO
    TITLE "2:cjc116_2751"
    INDEX 01 07:35:13
  TRACK 433 AUDIO
    TITLE "0:"
    INDEX 01 07:36:72
  TRACK 434 AUDIO
    TITLE "2:cjc116_2752"
    INDEX 01 07:37:36
  TRACK 435 AUDIO
    TITLE "0:"
    INDEX 01 07:39:11
  TRACK 436 AUDIO
    TITLE "2:cjc116_2753"
    INDEX 01 07:39:50
  TRACK 437 AUDIO
    TITLE "0:"
    INDEX 01 07:41:22
  TRACK 438 AUDIO
    TITLE "2:cjc116_2754"
    INDEX 01 07:41:65
  TRACK 439 AUDIO
    TITLE "0:"
    INDEX 01 07:43:23
  TRACK 440 AUDIO
    TITLE "2:cjc116_2755"
    INDEX 01 07:43:58
  TRACK 441 AUDIO
    TITLE "0:"
    INDEX 01 07:45:45
  TRACK 442 AUDIO
    TITLE "2:cjc116_2756"
    INDEX 01 07:46:05
  TRACK 443 AUDIO
    TITLE "0:"
    INDEX 01 07:47:30
  TRACK 444 AUDIO
    TITLE "2:cjc116_2757"
    INDEX 01 07:47:67
  TRACK 445 AUDIO
    TITLE "0:"
    INDEX 01 07:49:74
  TRACK 446 AUDIO
    TITLE "2:cjc116_2758"
    INDEX 01 07:50:42
  TRACK 447 AUDIO
    TITLE "0:"
    INDEX 01 07:52:12
  TRACK 448 AUDIO
    TITLE "2:cjc116_2759"
    INDEX 01 07:52:47
  TRACK 449 AUDIO
    TITLE "0:"
    INDEX 01 07:54:15
  TRACK 450 AUDIO
    TITLE "2:cjc116_2760"
    INDEX 01 07:54:62
  TRACK 451 AUDIO
    TITLE "0:"
    INDEX 01 07:56:17
  TRACK 452 AUDIO
    TITLE "2:cjc116_2761"
    INDEX 01 07:56:60
  TRACK 453 AUDIO
    TITLE "0:"
    INDEX 01 07:57:70
  TRACK 454 AUDIO
    TITLE "2:cjc116_2762"
    INDEX 01 07:58:38
  TRACK 455 AUDIO
    TITLE "0:"
    INDEX 01 08:00:09
  TRACK 456 AUDIO
    TITLE "2:cjc116_2763"
    INDEX 01 08:00:45
  TRACK 457 AUDIO
    TITLE "0:"
    INDEX 01 08:02:34
  TRACK 458 AUDIO
    TITLE "2:cjc116_2764"
    INDEX 01 08:02:69
  TRACK 459 AUDIO
    TITLE "0:"
    INDEX 01 08:04:31
  TRACK 460 AUDIO
    TITLE "3:cjc116_2765"
    INDEX 01 08:06:06
  TRACK 461 AUDIO
    TITLE "0:"
    INDEX 01 08:07:05
  TRACK 462 AUDIO
    TITLE "2:cjc116_2766"
    INDEX 01 08:07:60
  TRACK 463 AUDIO
    TITLE "0:"
    INDEX 01 08:08:66
  TRACK 464 AUDIO
    TITLE "2:cjc116_2767"
    INDEX 01 08:09:28
  TRACK 465 AUDIO
    TITLE "0:"
    INDEX 01 08:10:33
  TRACK 466 AUDIO
    TITLE "2:cjc116_2768"
    INDEX 01 08:10:66
  TRACK 467 AUDIO
    TITLE "0:"
    INDEX 01 08:12:36
  TRACK 468 AUDIO
    TITLE "2:cjc116_2769"
    INDEX 01 08:13:00
  TRACK 469 AUDIO
    TITLE "0:"
    INDEX 01 08:14:07
  TRACK 470 AUDIO
    TITLE "2:cjc116_2770"
    INDEX 01 08:14:45
  TRACK 471 AUDIO
    TITLE "0:"
    INDEX 01 08:15:56
  TRACK 472 AUDIO
    TITLE "2:cjc116_2771"
    INDEX 01 08:16:28
  TRACK 473 AUDIO
    TITLE "0:"
    INDEX 01 08:17:57
  TRACK 474 AUDIO
    TITLE "2:cjc116_2772"
    INDEX 01 08:18:23
  TRACK 475 AUDIO
    TITLE "0:"
    INDEX 01 08:19:20
  TRACK 476 AUDIO
    TITLE "2:cjc116_2773"
    INDEX 01 08:19:63
  TRACK 477 AUDIO
    TITLE "0:"
    INDEX 01 08:21:62
  TRACK 478 AUDIO
    TITLE "2:cjc116_2774"
    INDEX 01 08:22:29
  TRACK 479 AUDIO
    TITLE "0:"
    INDEX 01 08:23:71
  TRACK 480 AUDIO
    TITLE "2:cjc116_2775"
    INDEX 01 08:24:39
  TRACK 481 AUDIO
    TITLE "0:"
    INDEX 01 08:27:28
  TRACK 482 AUDIO
    TITLE "2:cjc116_2776"
    INDEX 01 08:27:65
  TRACK 483 AUDIO
    TITLE "0:"
    INDEX 01 08:28:68
  TRACK 484 AUDIO
    TITLE "2:cjc116_2777"
    INDEX 01 08:29:44
  TRACK 485 AUDIO
    TITLE "0:"
    INDEX 01 08:31:33
  TRACK 486 AUDIO
    TITLE "2:cjc116_2778"
    INDEX 01 08:31:71
  TRACK 487 AUDIO
    TITLE "0:"
    INDEX 01 08:33:22
  TRACK 488 AUDIO
    TITLE "2:cjc116_2779"
    INDEX 01 08:33:66
  TRACK 489 AUDIO
    TITLE "0:"
    INDEX 01 08:35:45
  TRACK 490 AUDIO
    TITLE "2:cjc116_2780"
    INDEX 01 08:36:05
  TRACK 491 AUDIO
    TITLE "0:"
    INDEX 01 08:37:20
  TRACK 492 AUDIO
    TITLE "2:cjc116_2781"
    INDEX 01 08:37:65
  TRACK 493 AUDIO
    TITLE "0:"
    INDEX 01 08:39:23
  TRACK 494 AUDIO
    TITLE "2:cjc116_2782"
    INDEX 01 08:39:60
  TRACK 495 AUDIO
    TITLE "0:"
    INDEX 01 08:42:68
  TRACK 496 AUDIO
    TITLE "2:cjc116_2783"
    INDEX 01 08:43:37
  TRACK 497 AUDIO
    TITLE "0:"
    INDEX 01 08:45:20
  TRACK 498 AUDIO
    TITLE "2:cjc116_2784"
    INDEX 01 08:45:61
  TRACK 499 AUDIO
    TITLE "0:"
    INDEX 01 08:47:48
  TRACK 500 AUDIO
    TITLE "2:cjc116_2785"
    INDEX 01 08:48:16
  TRACK 501 AUDIO
    TITLE "0:"
    INDEX 01 08:50:35
  TRACK 502 AUDIO
    TITLE "2:cjc116_2786"
    INDEX 01 08:51:01
  TRACK 503 AUDIO
    TITLE "0:"
    INDEX 01 08:52:43
  TRACK 504 AUDIO
    TITLE "2:cjc116_2787"
    INDEX 01 08:53:09
  TRACK 505 AUDIO
    TITLE "0:"
    INDEX 01 08:54:23
  TRACK 506 AUDIO
    TITLE "2:cjc116_2788"
    INDEX 01 08:54:58
  TRACK 507 AUDIO
    TITLE "0:"
    INDEX 01 08:56:25
  TRACK 508 AUDIO
    TITLE "2:cjc116_2789"
    INDEX 01 08:56:71
  TRACK 509 AUDIO
    TITLE "0:"
    INDEX 01 08:58:09
  TRACK 510 AUDIO
    TITLE "2:cjc116_2790"
    INDEX 01 08:58:52
  TRACK 511 AUDIO
    TITLE "0:"
    INDEX 01 09:00:13
  TRACK 512 AUDIO
    TITLE "2:cjc116_2791"
    INDEX 01 09:00:53
  TRACK 513 AUDIO
    TITLE "0:"
    INDEX 01 09:01:74
  TRACK 514 AUDIO
    TITLE "2:cjc116_2792"
    INDEX 01 09:02:40
  TRACK 515 AUDIO
    TITLE "0:"
    INDEX 01 09:03:71
  TRACK 516 AUDIO
    TITLE "2:cjc116_2793"
    INDEX 01 09:04:35
  TRACK 517 AUDIO
    TITLE "0:"
    INDEX 01 09:06:02
  TRACK 518 AUDIO
    TITLE "2:cjc116_2794"
    INDEX 01 09:06:51
  TRACK 519 AUDIO
    TITLE "0:"
    INDEX 01 09:08:44
  TRACK 520 AUDIO
    TITLE "2:cjc116_2795"
    INDEX 01 09:09:16
  TRACK 521 AUDIO
    TITLE "0:"
    INDEX 01 09:10:53
